<mxfile host="app.diagrams.net" agent="Mozilla/5.0 (Macintosh; Intel Mac OS X 10_15_7) AppleWebKit/605.1.15 (KHTML, like Gecko) Version/18.1.1 Safari/605.1.15" version="24.9.3">
  <diagram name="Page-1" id="e7e014a7-5840-1c2e-5031-d8a46d1fe8dd">
    <mxGraphModel dx="1122" dy="794" grid="1" gridSize="10" guides="1" tooltips="1" connect="1" arrows="1" fold="1" page="1" pageScale="1" pageWidth="1169" pageHeight="826" background="none" math="0" shadow="0">
      <root>
        <mxCell id="0" />
        <mxCell id="1" parent="0" />
        <mxCell id="2" value="Database" style="swimlane;whiteSpace=wrap;movable=1;resizable=1;rotatable=1;deletable=1;editable=1;locked=0;connectable=1;" parent="1" vertex="1">
          <mxGeometry x="200" y="128" width="200" height="570" as="geometry" />
        </mxCell>
        <mxCell id="bcCmSrX_Y_fcEV3nzPfL-85" value="Store Information" style="html=1;whiteSpace=wrap;" parent="2" vertex="1">
          <mxGeometry x="60" y="205.00368421052644" width="110" height="50" as="geometry" />
        </mxCell>
        <mxCell id="3" value="Student" style="swimlane;whiteSpace=wrap;movable=1;resizable=1;rotatable=1;deletable=1;editable=1;locked=0;connectable=1;" parent="1" vertex="1">
          <mxGeometry x="400" y="128" width="290" height="570" as="geometry" />
        </mxCell>
        <mxCell id="bcCmSrX_Y_fcEV3nzPfL-45" value="" style="edgeStyle=orthogonalEdgeStyle;html=1;verticalAlign=bottom;endArrow=open;endSize=8;strokeColor=#ff0000;rounded=0;" parent="3" edge="1">
          <mxGeometry relative="1" as="geometry">
            <mxPoint x="124.5" y="92" as="targetPoint" />
            <mxPoint x="123.99999999999977" y="62" as="sourcePoint" />
          </mxGeometry>
        </mxCell>
        <mxCell id="bcCmSrX_Y_fcEV3nzPfL-47" style="edgeStyle=orthogonalEdgeStyle;rounded=0;orthogonalLoop=1;jettySize=auto;html=1;exitX=0.5;exitY=1;exitDx=0;exitDy=0;" parent="3" source="bcCmSrX_Y_fcEV3nzPfL-46" target="bcCmSrX_Y_fcEV3nzPfL-48" edge="1">
          <mxGeometry relative="1" as="geometry">
            <mxPoint x="124" y="142" as="targetPoint" />
          </mxGeometry>
        </mxCell>
        <mxCell id="bcCmSrX_Y_fcEV3nzPfL-46" value="Input Message" style="html=1;whiteSpace=wrap;" parent="3" vertex="1">
          <mxGeometry x="79.5" y="92" width="90" height="30" as="geometry" />
        </mxCell>
        <mxCell id="bcCmSrX_Y_fcEV3nzPfL-48" value="" style="line;strokeWidth=1;fillColor=none;align=left;verticalAlign=middle;spacingTop=-1;spacingLeft=3;spacingRight=3;rotatable=0;labelPosition=right;points=[];portConstraint=eastwest;strokeColor=inherit;" parent="3" vertex="1">
          <mxGeometry x="80" y="138" width="90" height="8" as="geometry" />
        </mxCell>
        <mxCell id="bcCmSrX_Y_fcEV3nzPfL-49" value="" style="text;strokeColor=none;fillColor=none;align=left;verticalAlign=middle;spacingTop=-1;spacingLeft=4;spacingRight=4;rotatable=0;labelPosition=right;points=[];portConstraint=eastwest;" parent="3" vertex="1">
          <mxGeometry x="114.5" y="146" width="20" height="6" as="geometry" />
        </mxCell>
        <mxCell id="bcCmSrX_Y_fcEV3nzPfL-44" value="" style="ellipse;html=1;shape=startState;fillColor=#000000;strokeColor=#ff0000;" parent="3" vertex="1">
          <mxGeometry x="109" y="42" width="30" height="30" as="geometry" />
        </mxCell>
        <mxCell id="bcCmSrX_Y_fcEV3nzPfL-80" value="Input Student Information" style="html=1;whiteSpace=wrap;" parent="3" vertex="1">
          <mxGeometry x="90" y="367" width="110" height="50" as="geometry" />
        </mxCell>
        <mxCell id="mTQv8E8tO9VXw2jQrZhB-4" value="" style="line;strokeWidth=1;fillColor=none;align=left;verticalAlign=middle;spacingTop=-1;spacingLeft=3;spacingRight=3;rotatable=0;labelPosition=right;points=[];portConstraint=eastwest;strokeColor=inherit;" vertex="1" parent="3">
          <mxGeometry x="90" y="347" width="110" height="8" as="geometry" />
        </mxCell>
        <mxCell id="mTQv8E8tO9VXw2jQrZhB-7" style="rounded=0;orthogonalLoop=1;jettySize=auto;html=1;entryX=0.501;entryY=0.456;entryDx=0;entryDy=0;entryPerimeter=0;" edge="1" parent="3" source="bcCmSrX_Y_fcEV3nzPfL-80" target="mTQv8E8tO9VXw2jQrZhB-4">
          <mxGeometry relative="1" as="geometry" />
        </mxCell>
        <mxCell id="4" value="LLM" style="swimlane;whiteSpace=wrap;movable=1;resizable=1;rotatable=1;deletable=1;editable=1;locked=0;connectable=1;" parent="1" vertex="1">
          <mxGeometry x="690" y="128" width="380" height="570" as="geometry" />
        </mxCell>
        <mxCell id="bcCmSrX_Y_fcEV3nzPfL-53" value="Intent Recognition" style="whiteSpace=wrap;html=1;" parent="4" vertex="1">
          <mxGeometry x="110" y="172" width="90" height="30" as="geometry" />
        </mxCell>
        <mxCell id="bcCmSrX_Y_fcEV3nzPfL-55" value="Recommendation?" style="rhombus;whiteSpace=wrap;html=1;fontColor=#000000;fillColor=#ffffc0;strokeColor=#ff0000;" parent="4" vertex="1">
          <mxGeometry x="60" y="260" width="115" height="50" as="geometry" />
        </mxCell>
        <mxCell id="bcCmSrX_Y_fcEV3nzPfL-54" style="edgeStyle=orthogonalEdgeStyle;rounded=0;orthogonalLoop=1;jettySize=auto;html=1;exitX=0.5;exitY=1;exitDx=0;exitDy=0;entryX=0.5;entryY=0;entryDx=0;entryDy=0;" parent="4" source="bcCmSrX_Y_fcEV3nzPfL-53" target="bcCmSrX_Y_fcEV3nzPfL-55" edge="1">
          <mxGeometry relative="1" as="geometry">
            <mxPoint x="104.71428571428578" y="212" as="targetPoint" />
          </mxGeometry>
        </mxCell>
        <mxCell id="bcCmSrX_Y_fcEV3nzPfL-70" value="Is prediction attributes ready?" style="rhombus;whiteSpace=wrap;html=1;fontColor=#000000;fillColor=#ffffc0;strokeColor=#ff0000;" parent="4" vertex="1">
          <mxGeometry x="240" y="347" width="100" height="70" as="geometry" />
        </mxCell>
        <mxCell id="bcCmSrX_Y_fcEV3nzPfL-51" value="Extract Information" style="whiteSpace=wrap;html=1;" parent="4" vertex="1">
          <mxGeometry x="90" y="52" width="90" height="30" as="geometry" />
        </mxCell>
        <mxCell id="bcCmSrX_Y_fcEV3nzPfL-59" value="Make Recommendation" style="whiteSpace=wrap;html=1;" parent="4" vertex="1">
          <mxGeometry x="60" y="412" width="100" height="30" as="geometry" />
        </mxCell>
        <mxCell id="bcCmSrX_Y_fcEV3nzPfL-57" value="yes" style="edgeStyle=orthogonalEdgeStyle;html=1;align=left;verticalAlign=top;endArrow=open;endSize=8;strokeColor=#ff0000;rounded=0;entryX=0.5;entryY=0;entryDx=0;entryDy=0;" parent="4" source="bcCmSrX_Y_fcEV3nzPfL-55" target="bcCmSrX_Y_fcEV3nzPfL-59" edge="1">
          <mxGeometry x="-1" relative="1" as="geometry">
            <mxPoint x="105" y="322" as="targetPoint" />
          </mxGeometry>
        </mxCell>
        <mxCell id="bcCmSrX_Y_fcEV3nzPfL-67" value="Appropriate Response" style="whiteSpace=wrap;html=1;" parent="4" vertex="1">
          <mxGeometry x="130" y="482" width="100" height="30" as="geometry" />
        </mxCell>
        <mxCell id="bcCmSrX_Y_fcEV3nzPfL-76" value="" style="group" parent="4" vertex="1" connectable="0">
          <mxGeometry x="280" y="202" width="40" height="30" as="geometry" />
        </mxCell>
        <mxCell id="bcCmSrX_Y_fcEV3nzPfL-75" value="Yes" style="text;html=1;align=center;verticalAlign=middle;resizable=0;points=[];autosize=1;strokeColor=none;fillColor=none;fontSize=11;" parent="bcCmSrX_Y_fcEV3nzPfL-76" vertex="1">
          <mxGeometry width="40" height="30" as="geometry" />
        </mxCell>
        <mxCell id="bcCmSrX_Y_fcEV3nzPfL-43" value="ML Model" style="swimlane;whiteSpace=wrap;movable=1;resizable=1;rotatable=1;deletable=1;editable=1;locked=0;connectable=1;" parent="1" vertex="1">
          <mxGeometry x="1070" y="128" width="214.5" height="570" as="geometry" />
        </mxCell>
        <mxCell id="bcCmSrX_Y_fcEV3nzPfL-77" value="Make Prediction" style="html=1;whiteSpace=wrap;" parent="bcCmSrX_Y_fcEV3nzPfL-43" vertex="1">
          <mxGeometry x="30" y="362" width="120" height="20" as="geometry" />
        </mxCell>
        <mxCell id="bcCmSrX_Y_fcEV3nzPfL-50" style="edgeStyle=orthogonalEdgeStyle;rounded=0;orthogonalLoop=1;jettySize=auto;html=1;entryX=0;entryY=0.5;entryDx=0;entryDy=0;" parent="1" source="bcCmSrX_Y_fcEV3nzPfL-49" target="bcCmSrX_Y_fcEV3nzPfL-51" edge="1">
          <mxGeometry relative="1" as="geometry">
            <mxPoint x="760" y="200" as="targetPoint" />
          </mxGeometry>
        </mxCell>
        <mxCell id="bcCmSrX_Y_fcEV3nzPfL-52" style="edgeStyle=orthogonalEdgeStyle;rounded=0;orthogonalLoop=1;jettySize=auto;html=1;entryX=0;entryY=0.5;entryDx=0;entryDy=0;" parent="1" source="bcCmSrX_Y_fcEV3nzPfL-49" target="bcCmSrX_Y_fcEV3nzPfL-53" edge="1">
          <mxGeometry relative="1" as="geometry">
            <mxPoint x="760" y="320" as="targetPoint" />
            <Array as="points">
              <mxPoint x="524" y="300" />
              <mxPoint x="645" y="300" />
              <mxPoint x="645" y="315" />
            </Array>
          </mxGeometry>
        </mxCell>
        <mxCell id="bcCmSrX_Y_fcEV3nzPfL-82" style="edgeStyle=orthogonalEdgeStyle;rounded=0;orthogonalLoop=1;jettySize=auto;html=1;exitX=0;exitY=1;exitDx=0;exitDy=0;entryX=1;entryY=0.5;entryDx=0;entryDy=0;" parent="1" source="bcCmSrX_Y_fcEV3nzPfL-51" target="bcCmSrX_Y_fcEV3nzPfL-83" edge="1">
          <mxGeometry relative="1" as="geometry">
            <mxPoint x="570" y="380" as="targetPoint" />
            <Array as="points">
              <mxPoint x="720" y="210" />
              <mxPoint x="720" y="358" />
            </Array>
          </mxGeometry>
        </mxCell>
        <mxCell id="bcCmSrX_Y_fcEV3nzPfL-56" value="no" style="edgeStyle=orthogonalEdgeStyle;html=1;align=left;verticalAlign=bottom;endArrow=open;endSize=8;strokeColor=#ff0000;rounded=0;entryX=0;entryY=0.5;entryDx=0;entryDy=0;" parent="1" source="bcCmSrX_Y_fcEV3nzPfL-55" target="bcCmSrX_Y_fcEV3nzPfL-63" edge="1">
          <mxGeometry x="-1" relative="1" as="geometry">
            <mxPoint x="880" y="365" as="targetPoint" />
          </mxGeometry>
        </mxCell>
        <mxCell id="bcCmSrX_Y_fcEV3nzPfL-61" style="edgeStyle=orthogonalEdgeStyle;rounded=0;orthogonalLoop=1;jettySize=auto;html=1;exitX=0.5;exitY=1;exitDx=0;exitDy=0;entryX=0.5;entryY=0;entryDx=0;entryDy=0;" parent="1" source="bcCmSrX_Y_fcEV3nzPfL-59" target="bcCmSrX_Y_fcEV3nzPfL-60" edge="1">
          <mxGeometry relative="1" as="geometry" />
        </mxCell>
        <mxCell id="bcCmSrX_Y_fcEV3nzPfL-62" value="Response" style="edgeLabel;html=1;align=center;verticalAlign=middle;resizable=0;points=[];" parent="bcCmSrX_Y_fcEV3nzPfL-61" vertex="1" connectable="0">
          <mxGeometry x="0.0732" y="-33" relative="1" as="geometry">
            <mxPoint x="-20" y="28" as="offset" />
          </mxGeometry>
        </mxCell>
        <mxCell id="bcCmSrX_Y_fcEV3nzPfL-60" value="" style="ellipse;html=1;shape=endState;fillColor=#000000;strokeColor=#ff0000;" parent="1" vertex="1">
          <mxGeometry x="540" y="650" width="30" height="30" as="geometry" />
        </mxCell>
        <mxCell id="bcCmSrX_Y_fcEV3nzPfL-63" value="Prediction" style="rhombus;whiteSpace=wrap;html=1;fontColor=#000000;fillColor=#ffffc0;strokeColor=#ff0000;" parent="1" vertex="1">
          <mxGeometry x="900" y="330" width="80" height="40" as="geometry" />
        </mxCell>
        <mxCell id="bcCmSrX_Y_fcEV3nzPfL-65" value="No" style="edgeStyle=orthogonalEdgeStyle;html=1;align=left;verticalAlign=top;endArrow=open;endSize=8;strokeColor=#ff0000;rounded=0;entryX=0.5;entryY=0;entryDx=0;entryDy=0;exitX=0.5;exitY=1;exitDx=0;exitDy=0;" parent="1" source="bcCmSrX_Y_fcEV3nzPfL-63" target="bcCmSrX_Y_fcEV3nzPfL-67" edge="1">
          <mxGeometry x="-1" relative="1" as="geometry">
            <mxPoint x="920" y="440" as="targetPoint" />
            <Array as="points">
              <mxPoint x="940" y="470" />
              <mxPoint x="870" y="470" />
            </Array>
          </mxGeometry>
        </mxCell>
        <mxCell id="bcCmSrX_Y_fcEV3nzPfL-68" style="edgeStyle=orthogonalEdgeStyle;rounded=0;orthogonalLoop=1;jettySize=auto;html=1;exitX=0.5;exitY=1;exitDx=0;exitDy=0;entryX=1;entryY=0.5;entryDx=0;entryDy=0;" parent="1" source="bcCmSrX_Y_fcEV3nzPfL-67" target="bcCmSrX_Y_fcEV3nzPfL-60" edge="1">
          <mxGeometry relative="1" as="geometry" />
        </mxCell>
        <mxCell id="bcCmSrX_Y_fcEV3nzPfL-69" value="Response" style="edgeLabel;html=1;align=center;verticalAlign=middle;resizable=0;points=[];" parent="bcCmSrX_Y_fcEV3nzPfL-68" vertex="1" connectable="0">
          <mxGeometry x="-0.0856" y="-16" relative="1" as="geometry">
            <mxPoint as="offset" />
          </mxGeometry>
        </mxCell>
        <mxCell id="bcCmSrX_Y_fcEV3nzPfL-71" value="Yes" style="edgeStyle=orthogonalEdgeStyle;html=1;align=left;verticalAlign=bottom;endArrow=open;endSize=8;strokeColor=#ff0000;rounded=0;" parent="1" source="bcCmSrX_Y_fcEV3nzPfL-70" target="bcCmSrX_Y_fcEV3nzPfL-77" edge="1">
          <mxGeometry x="-1" relative="1" as="geometry">
            <mxPoint x="1110" y="480" as="targetPoint" />
          </mxGeometry>
        </mxCell>
        <mxCell id="bcCmSrX_Y_fcEV3nzPfL-72" value="No" style="edgeStyle=orthogonalEdgeStyle;html=1;align=left;verticalAlign=top;endArrow=open;endSize=8;strokeColor=#ff0000;rounded=0;entryX=1;entryY=0.5;entryDx=0;entryDy=0;" parent="1" source="bcCmSrX_Y_fcEV3nzPfL-70" target="bcCmSrX_Y_fcEV3nzPfL-80" edge="1">
          <mxGeometry x="-0.8906" relative="1" as="geometry">
            <mxPoint x="640" y="413" as="targetPoint" />
            <mxPoint as="offset" />
          </mxGeometry>
        </mxCell>
        <mxCell id="bcCmSrX_Y_fcEV3nzPfL-79" style="edgeStyle=orthogonalEdgeStyle;rounded=0;orthogonalLoop=1;jettySize=auto;html=1;exitX=0.5;exitY=1;exitDx=0;exitDy=0;entryX=1;entryY=0.5;entryDx=0;entryDy=0;" parent="1" source="bcCmSrX_Y_fcEV3nzPfL-77" target="bcCmSrX_Y_fcEV3nzPfL-59" edge="1">
          <mxGeometry relative="1" as="geometry" />
        </mxCell>
        <mxCell id="bcCmSrX_Y_fcEV3nzPfL-84" style="edgeStyle=orthogonalEdgeStyle;rounded=0;orthogonalLoop=1;jettySize=auto;html=1;exitX=0;exitY=0.5;exitDx=0;exitDy=0;" parent="1" source="bcCmSrX_Y_fcEV3nzPfL-83" target="bcCmSrX_Y_fcEV3nzPfL-85" edge="1">
          <mxGeometry relative="1" as="geometry">
            <mxPoint x="370" y="358.47368421052647" as="targetPoint" />
          </mxGeometry>
        </mxCell>
        <mxCell id="bcCmSrX_Y_fcEV3nzPfL-83" value="Assign new attributes" style="html=1;whiteSpace=wrap;" parent="1" vertex="1">
          <mxGeometry x="484.5" y="338" width="85.5" height="40" as="geometry" />
        </mxCell>
        <mxCell id="bcCmSrX_Y_fcEV3nzPfL-100" style="edgeStyle=orthogonalEdgeStyle;rounded=0;orthogonalLoop=1;jettySize=auto;html=1;exitX=0.5;exitY=1;exitDx=0;exitDy=0;entryX=0;entryY=0.5;entryDx=0;entryDy=0;" parent="1" source="bcCmSrX_Y_fcEV3nzPfL-85" target="bcCmSrX_Y_fcEV3nzPfL-60" edge="1">
          <mxGeometry relative="1" as="geometry" />
        </mxCell>
        <mxCell id="bcCmSrX_Y_fcEV3nzPfL-73" style="edgeStyle=orthogonalEdgeStyle;rounded=0;orthogonalLoop=1;jettySize=auto;html=1;exitX=1;exitY=0.5;exitDx=0;exitDy=0;entryX=0.5;entryY=0;entryDx=0;entryDy=0;strokeColor=#FF0000;endArrow=open;endFill=0;" parent="1" source="bcCmSrX_Y_fcEV3nzPfL-63" target="bcCmSrX_Y_fcEV3nzPfL-70" edge="1">
          <mxGeometry relative="1" as="geometry" />
        </mxCell>
        <mxCell id="mTQv8E8tO9VXw2jQrZhB-5" style="edgeStyle=orthogonalEdgeStyle;rounded=0;orthogonalLoop=1;jettySize=auto;html=1;entryX=0.5;entryY=1;entryDx=0;entryDy=0;" edge="1" parent="1" source="mTQv8E8tO9VXw2jQrZhB-4" target="bcCmSrX_Y_fcEV3nzPfL-51">
          <mxGeometry relative="1" as="geometry">
            <Array as="points">
              <mxPoint x="545" y="420" />
              <mxPoint x="740" y="420" />
              <mxPoint x="740" y="240" />
              <mxPoint x="825" y="240" />
            </Array>
          </mxGeometry>
        </mxCell>
        <mxCell id="mTQv8E8tO9VXw2jQrZhB-6" style="edgeStyle=orthogonalEdgeStyle;rounded=0;orthogonalLoop=1;jettySize=auto;html=1;entryX=0;entryY=0;entryDx=0;entryDy=0;exitX=0.818;exitY=0;exitDx=0;exitDy=0;exitPerimeter=0;" edge="1" parent="1" source="mTQv8E8tO9VXw2jQrZhB-4" target="bcCmSrX_Y_fcEV3nzPfL-70">
          <mxGeometry relative="1" as="geometry" />
        </mxCell>
      </root>
    </mxGraphModel>
  </diagram>
</mxfile>
